<svg width="389" height="49" viewBox="0 0 389 49" fill="none" xmlns="http://www.w3.org/2000/svg">
<path fill-rule="evenodd" clip-rule="evenodd" d="M235.829 6.79264C235.449 6.41308 234.878 6.17586 234.308 6.17586C233.738 6.17586 233.168 6.41308 232.787 6.79264C232.217 7.36198 232.17 7.97876 232.17 9.82909C232.17 11.6794 232.217 12.2962 232.787 12.8655C233.168 13.2451 233.738 13.4823 234.308 13.4823C234.878 13.4823 235.449 13.2451 235.829 12.8655C236.399 12.2962 236.447 11.6794 236.447 9.82909C236.447 7.93131 236.352 7.36198 235.829 6.79264ZM236.542 13.3874C235.924 14.0042 235.164 14.2889 234.261 14.2889C233.358 14.2889 232.597 13.9568 231.979 13.3874C231.124 12.5334 231.124 11.6794 231.124 9.78165C231.124 7.88387 231.124 7.02986 231.979 6.17586C232.597 5.55908 233.358 5.27441 234.261 5.27441C235.164 5.27441 235.924 5.60653 236.542 6.17586C237.397 7.02986 237.397 7.88387 237.397 9.78165C237.397 11.6794 237.397 12.5809 236.542 13.3874ZM224.756 14.3363C223.425 14.3363 222.522 14.0042 221.714 13.1502L222.38 12.4859C223.14 13.2451 223.805 13.4823 224.803 13.4823C226.087 13.4823 226.894 12.8655 226.894 11.8217C226.894 11.3473 226.752 10.9677 226.467 10.7305C226.182 10.4933 225.944 10.3984 225.326 10.3035L224.281 10.1612C223.568 10.0663 223.045 9.82904 222.665 9.49693C222.237 9.11738 221.999 8.54804 221.999 7.83637C221.999 6.31815 223.092 5.32181 224.851 5.32181C225.991 5.32181 226.752 5.60648 227.512 6.31815L226.894 6.93492C226.324 6.41303 225.754 6.17581 224.803 6.17581C223.615 6.17581 222.95 6.84004 222.95 7.83637C222.95 8.26337 223.092 8.64293 223.33 8.88015C223.615 9.11738 224.09 9.30715 224.518 9.3546L225.516 9.49693C226.372 9.63927 226.752 9.7816 227.132 10.1137C227.607 10.5407 227.892 11.1575 227.892 11.8692C227.797 13.3874 226.562 14.3363 224.756 14.3363ZM241.817 13.4348C242.435 14.0042 243.243 14.3363 244.098 14.3363C245.666 14.3363 246.902 13.3399 247.187 11.6794H246.237C245.999 12.7706 245.191 13.4823 244.098 13.4823C243.528 13.4823 242.958 13.2451 242.577 12.8655C242.007 12.2962 241.96 11.6794 241.96 9.82904C241.96 7.97871 242.007 7.36193 242.577 6.79259C242.958 6.41303 243.528 6.17581 244.098 6.17581C245.191 6.17581 245.952 6.88748 246.189 7.97871H247.187C246.902 6.31815 245.714 5.32181 244.098 5.32181C243.195 5.32181 242.435 5.60648 241.817 6.22326C240.962 7.07725 240.962 7.93125 240.962 9.82901V9.82904V9.82908C240.962 11.7268 240.962 12.5808 241.817 13.4348ZM251.94 5.3692H250.989V14.2413H251.94V5.3692ZM256.169 5.3692V14.2413H261.729V13.3873H257.12V10.2086H261.064V9.35455H257.12V6.22321H261.729V5.3692H256.169ZM270.046 6.83999C269.571 6.36554 269.001 6.17576 268.288 6.17576H266.339V13.3873H268.288C268.953 13.3873 269.571 13.1976 270.046 12.7231C270.623 12.147 270.62 10.9501 270.617 9.90544C270.617 9.83167 270.616 9.75865 270.616 9.68666C270.616 9.61905 270.617 9.55104 270.617 9.48279V9.48206V9.48133V9.48059V9.47984V9.4791V9.47834V9.47759C270.62 8.49371 270.623 7.46009 270.046 6.83999ZM270.712 13.4348C270.189 13.9567 269.381 14.2413 268.478 14.2413H265.436V5.3692H268.478C269.381 5.3692 270.189 5.65387 270.712 6.17576C271.572 7.03446 271.569 8.32368 271.567 9.51028L271.567 9.68666L271.567 9.86311C271.569 11.0664 271.572 12.5306 270.712 13.4348ZM276.272 11.4421L277.935 6.7451L279.598 11.4421H276.272ZM279.836 12.2487L280.549 14.2413H281.594L278.315 5.3692H277.507L274.228 14.2413H275.226L275.939 12.2487H279.836ZM289.341 6.83999C288.866 6.36554 288.295 6.17576 287.582 6.17576H285.634V13.3873H287.582C288.248 13.3873 288.866 13.1976 289.341 12.7231C289.918 12.1471 289.914 10.9502 289.912 9.90564V9.90558V9.90329V9.90104C289.911 9.82876 289.911 9.75722 289.911 9.68666C289.959 8.64288 289.959 7.50421 289.341 6.83999ZM290.006 13.4348C289.483 13.9567 288.675 14.2413 287.773 14.2413H284.731V5.3692H287.773C288.675 5.3692 289.483 5.65387 290.006 6.17576C290.866 7.03446 290.864 8.32368 290.862 9.51028L290.862 9.68666C290.862 9.78072 290.862 9.87672 290.863 9.97422V9.97535V9.9765V9.97766V9.97885V9.98006V9.98128V9.98252V9.98379V9.98507V9.98638V9.98771V9.98906V9.99043V9.99183V9.99324V9.99468V9.99614C290.87 11.1727 290.879 12.5637 290.006 13.4348ZM302.505 6.17576C303.218 6.17576 303.788 6.36554 304.263 6.83999C304.84 7.46009 304.837 8.4937 304.834 9.47757C304.834 9.54758 304.834 9.61733 304.834 9.68666L304.834 9.7806L304.834 9.85976V9.86133V9.86292V9.86454V9.86619V9.86787V9.86957V9.8713V9.87306V9.87484V9.87665V9.87849V9.88037V9.88228V9.88422V9.88618V9.88818V9.89022V9.89228V9.89439V9.89653V9.89871V9.90092V9.90317V9.90546C304.837 10.9501 304.84 12.147 304.263 12.7231C303.788 13.1976 303.17 13.3873 302.505 13.3873H300.556V6.17576H302.505ZM302.695 14.2413C303.598 14.2413 304.406 13.9567 304.929 13.4348C305.789 12.5306 305.786 11.0663 305.784 9.86309L305.784 9.68666L305.784 9.51031C305.786 8.3237 305.789 7.03447 304.929 6.17576C304.406 5.65387 303.598 5.3692 302.695 5.3692H299.654V14.2413H302.695ZM309.729 14.2413V5.3692H315.241V6.22321H310.679V9.35455H314.576V10.2086H310.679V13.3873H315.241V14.2413H309.729ZM324.223 13.4348C324.841 14.0042 325.649 14.3363 326.505 14.3363C328.12 14.3363 329.309 13.3399 329.594 11.6794H328.643C328.406 12.7706 327.598 13.4823 326.505 13.4823C325.934 13.4823 325.364 13.2451 324.984 12.8655C324.414 12.2962 324.366 11.6794 324.366 9.82904C324.366 7.97871 324.414 7.36193 324.984 6.79259C325.364 6.41303 325.934 6.17581 326.505 6.17581C327.598 6.17581 328.358 6.88748 328.596 7.97871H329.594C329.309 6.31815 328.12 5.32181 326.505 5.32181C325.602 5.32181 324.841 5.60648 324.223 6.22326C323.368 7.07726 323.368 7.93126 323.368 9.82904C323.368 11.7268 323.368 12.5808 324.223 13.4348ZM334.346 5.3692H333.396V14.2413H334.346V5.3692ZM338.623 5.3692V14.2413H344.136V13.3873H339.574V10.2086H343.471V9.35455H339.574V6.22321H344.136V5.3692H338.623ZM353.498 14.2413L348.746 7.12465V14.2413H347.795V5.3692H348.698L353.451 12.4859V5.3692H354.401V14.2413H353.498ZM359.153 13.4348C359.771 14.0042 360.579 14.3363 361.435 14.3363C363.003 14.3363 364.239 13.3399 364.524 11.6794H363.573C363.336 12.7706 362.528 13.4823 361.435 13.4823C360.864 13.4823 360.294 13.2451 359.914 12.8655C359.344 12.2962 359.296 11.6794 359.296 9.82904C359.296 7.97871 359.344 7.36193 359.914 6.79259C360.294 6.41303 360.864 6.17581 361.435 6.17581C362.528 6.17581 363.288 6.88748 363.526 7.97871H364.524C364.239 6.31815 363.05 5.32181 361.435 5.32181C360.532 5.32181 359.771 5.60648 359.153 6.22326C358.298 7.07726 358.298 7.93126 358.298 9.82904C358.298 11.7268 358.298 12.5808 359.153 13.4348ZM369.276 5.3692H368.326V14.2413H369.276V5.3692ZM374.409 11.4421L376.072 6.7451L377.735 11.4421H374.409ZM378.021 12.2487L378.733 14.2413H379.779L376.5 5.3692H375.692L372.413 14.2413H373.411L374.124 12.2487H378.021ZM385.149 14.3363C383.818 14.3363 382.916 14.0042 382.108 13.1502L382.773 12.4859C383.533 13.2451 384.199 13.4823 385.197 13.4823C386.48 13.4823 387.288 12.8655 387.288 11.8217C387.288 11.3473 387.145 10.9677 386.86 10.7305C386.575 10.4933 386.337 10.3984 385.719 10.3035L384.674 10.1612C383.961 10.0663 383.438 9.82904 383.058 9.49693C382.63 9.11738 382.393 8.54804 382.393 7.83637C382.393 6.31815 383.486 5.32181 385.244 5.32181C386.385 5.32181 387.145 5.60648 387.906 6.31815L387.288 6.93492C386.717 6.41303 386.147 6.17581 385.197 6.17581C384.009 6.17581 383.343 6.84004 383.343 7.83637C383.343 8.26337 383.486 8.64293 383.723 8.88015C384.009 9.11738 384.484 9.30715 384.912 9.3546L385.91 9.49693C386.765 9.63927 387.145 9.7816 387.525 10.1137C388.001 10.5407 388.286 11.1575 388.286 11.8692C388.238 13.3874 387.003 14.3363 385.149 14.3363ZM221.714 28.0478C222.522 28.9018 223.425 29.2339 224.756 29.2339C226.562 29.2339 227.797 28.285 227.892 26.7668C227.892 26.0551 227.607 25.4383 227.132 25.0113C226.752 24.6792 226.372 24.5369 225.516 24.3946L224.518 24.2522C224.09 24.2048 223.615 24.015 223.33 23.7778C223.092 23.5406 222.95 23.161 222.95 22.734C222.95 21.7377 223.615 21.0734 224.803 21.0734C225.754 21.0734 226.324 21.3107 226.894 21.8326L227.512 21.2158C226.752 20.5041 225.991 20.2194 224.851 20.2194C223.092 20.2194 221.999 21.2158 221.999 22.734C221.999 23.4457 222.237 24.015 222.665 24.3946C223.045 24.7267 223.568 24.9639 224.281 25.0588L225.326 25.2011C225.944 25.296 226.182 25.3909 226.467 25.6281C226.752 25.8653 226.894 26.2449 226.894 26.7193C226.894 27.7631 226.087 28.3799 224.803 28.3799C223.805 28.3799 223.14 28.1427 222.38 27.3836L221.714 28.0478ZM234.261 29.2339C233.405 29.2339 232.597 28.9018 231.979 28.3325C231.124 27.4785 231.124 26.6245 231.124 24.7267C231.124 22.8289 231.124 21.9749 231.979 21.1209C232.597 20.5041 233.358 20.2194 234.261 20.2194C235.876 20.2194 237.065 21.2158 237.35 22.8763H236.352C236.114 21.7851 235.354 21.0734 234.261 21.0734C233.69 21.0734 233.12 21.3107 232.74 21.6902C232.17 22.2596 232.122 22.8763 232.122 24.7267C232.122 26.577 232.17 27.1938 232.74 27.7631C233.12 28.1427 233.69 28.3799 234.261 28.3799C235.354 28.3799 236.162 27.6682 236.399 26.577H237.35C237.065 28.2376 235.876 29.2339 234.261 29.2339ZM241.152 20.2668H242.102V29.139H241.152V20.2668ZM246.379 29.139V20.2668H251.892V21.1208H247.33V24.2522H251.227V25.1062H247.33V28.285H251.892V29.139H246.379ZM256.502 22.0223L261.254 29.139H262.157V20.2668H261.207V27.3835L256.454 20.2668H255.551V29.139H256.502V22.0223ZM269.191 29.2339C268.335 29.2339 267.527 28.9018 266.91 28.3325C266.054 27.4785 266.054 26.6245 266.054 24.7267V24.7267V24.7266C266.054 22.8289 266.054 21.9749 266.91 21.1209C267.527 20.5041 268.288 20.2194 269.191 20.2194C270.807 20.2194 271.995 21.2158 272.28 22.8763H271.282C271.044 21.7851 270.284 21.0734 269.191 21.0734C268.62 21.0734 268.05 21.3107 267.67 21.6902C267.1 22.2596 267.052 22.8763 267.052 24.7267C267.052 26.577 267.1 27.1938 267.67 27.7631C268.05 28.1427 268.62 28.3799 269.191 28.3799C270.284 28.3799 271.092 27.6682 271.329 26.577H272.28C271.995 28.2376 270.759 29.2339 269.191 29.2339ZM276.082 20.2668V29.139H281.594V28.285H277.032V25.1062H280.929V24.2522H277.032V21.1208H281.594V20.2668H276.082ZM292.382 29.2339C291.052 29.2339 290.149 28.9018 289.341 28.0478L290.006 27.3836C290.766 28.1427 291.432 28.3799 292.43 28.3799C293.713 28.3799 294.521 27.7631 294.521 26.7193C294.521 26.2449 294.378 25.8653 294.093 25.6281C293.808 25.3909 293.57 25.296 292.953 25.2011L291.907 25.0588C291.194 24.9639 290.671 24.7267 290.291 24.3946C289.864 24.015 289.626 23.4457 289.626 22.734C289.626 21.2158 290.719 20.2194 292.477 20.2194C293.618 20.2194 294.378 20.5041 295.139 21.2158L294.521 21.8326C293.951 21.3107 293.38 21.0734 292.43 21.0734C291.242 21.0734 290.576 21.7377 290.576 22.734C290.576 23.161 290.719 23.5406 290.957 23.7778C291.242 24.015 291.717 24.2048 292.145 24.2522L293.143 24.3946C293.998 24.5369 294.378 24.6792 294.758 25.0113C295.234 25.4383 295.519 26.0551 295.519 26.7668C295.424 28.285 294.236 29.2339 292.382 29.2339ZM301.935 21.0734C302.505 21.0734 303.075 21.3106 303.456 21.6901C304.026 22.2595 304.073 22.8288 304.073 24.7266C304.073 26.5769 304.026 27.1937 303.456 27.763C303.075 28.1426 302.505 28.3798 301.935 28.3798C301.365 28.3798 300.794 28.1426 300.414 27.763C299.844 27.1937 299.796 26.5769 299.796 24.7266C299.796 22.8763 299.844 22.2595 300.414 21.6901C300.794 21.3106 301.365 21.0734 301.935 21.0734ZM301.887 29.1864C302.79 29.1864 303.551 28.9017 304.169 28.2849C305.024 27.4784 305.024 26.5769 305.024 24.6791C305.024 22.7814 305.024 21.9274 304.169 21.0734C303.551 20.504 302.79 20.1719 301.887 20.1719C300.984 20.1719 300.224 20.4566 299.606 21.0734C298.751 21.9274 298.751 22.7814 298.751 24.6791C298.751 26.5769 298.751 27.4309 299.606 28.2849C300.224 28.8543 300.984 29.1864 301.887 29.1864ZM311.725 29.2339C310.869 29.2339 310.061 28.9018 309.443 28.3325C308.588 27.4785 308.588 26.6245 308.588 24.7267C308.588 22.8289 308.588 21.9749 309.443 21.1209C310.061 20.5041 310.822 20.2194 311.725 20.2194C313.34 20.2194 314.528 21.2158 314.814 22.8763H313.816C313.578 21.7851 312.818 21.0734 311.725 21.0734C311.154 21.0734 310.584 21.3107 310.204 21.6902C309.633 22.2596 309.586 22.8763 309.586 24.7267C309.586 26.577 309.633 27.1938 310.204 27.7631C310.584 28.1427 311.154 28.3799 311.725 28.3799C312.818 28.3799 313.625 27.6682 313.863 26.577H314.814C314.528 28.2376 313.293 29.2339 311.725 29.2339ZM318.616 20.2668H319.566V29.139H318.616V20.2668ZM323.843 29.139V20.2668H329.356V21.1208H324.794V24.2522H328.691V25.1062H324.794V28.285H329.356V29.139H323.843ZM335.629 29.139V21.1208H338.195V20.2668H332.112V21.1208H334.679V29.139H335.629ZM343.993 25.4857V29.139H343.043V25.4857L340.382 20.2668H341.427L343.518 24.5368L345.562 20.2668H346.607L343.993 25.4857ZM221.714 42.9454C222.522 43.7994 223.425 44.1315 224.756 44.1315C226.562 44.1315 227.797 43.1826 227.892 41.6644C227.892 40.9527 227.607 40.3359 227.132 39.9089C226.752 39.5768 226.372 39.4345 225.516 39.2921L224.518 39.1498C224.09 39.1024 223.615 38.9126 223.33 38.6754C223.092 38.4381 222.95 38.0586 222.95 37.6316C222.95 36.6352 223.615 35.971 224.803 35.971C225.754 35.971 226.324 36.2082 226.894 36.7301L227.512 36.1133C226.752 35.4017 225.991 35.117 224.851 35.117C223.092 35.117 221.999 36.1133 221.999 37.6316C221.999 38.3432 222.237 38.9126 222.665 39.2921C223.045 39.6242 223.568 39.8615 224.281 39.9564L225.326 40.0987C225.944 40.1936 226.182 40.2885 226.467 40.5257C226.752 40.7629 226.894 41.1425 226.894 41.6169C226.894 42.6607 226.087 43.2775 224.803 43.2775C223.805 43.2775 223.14 43.0403 222.38 42.2811L221.714 42.9454ZM235.829 36.5878C235.449 36.2082 234.878 35.971 234.308 35.971C233.738 35.971 233.168 36.2082 232.787 36.5878C232.217 37.1571 232.17 37.7739 232.17 39.6242C232.17 41.4746 232.217 42.0913 232.787 42.6607C233.168 43.0402 233.738 43.2775 234.308 43.2775C234.878 43.2775 235.449 43.0402 235.829 42.6607C236.399 42.0913 236.447 41.4746 236.447 39.6242C236.447 37.7264 236.352 37.1571 235.829 36.5878ZM236.542 43.1826C235.924 43.7994 235.164 44.084 234.261 44.084C233.358 44.084 232.597 43.7519 231.979 43.1826C231.124 42.3286 231.124 41.4746 231.124 39.5768C231.124 37.679 231.124 36.825 231.979 35.971C232.597 35.3542 233.358 35.0695 234.261 35.0695C235.164 35.0695 235.924 35.4016 236.542 35.971C237.397 36.825 237.397 37.679 237.397 39.5768C237.397 41.4746 237.397 42.376 236.542 43.1826ZM241.817 43.23C242.435 43.7994 243.243 44.1315 244.098 44.1315C245.666 44.1315 246.902 43.1351 247.187 41.4746H246.237C245.999 42.5658 245.191 43.2775 244.098 43.2775C243.528 43.2775 242.958 43.0402 242.577 42.6607C242.007 42.0914 241.96 41.4746 241.96 39.6242C241.96 37.7739 242.007 37.1571 242.577 36.5878C242.958 36.2082 243.528 35.971 244.098 35.971C245.191 35.971 245.952 36.6827 246.189 37.7739H247.187C246.902 36.1133 245.714 35.117 244.098 35.117C243.195 35.117 242.435 35.4017 241.817 36.0185C240.962 36.8724 240.962 37.7265 240.962 39.6242V39.6242V39.6243C240.962 41.522 240.962 42.376 241.817 43.23ZM251.94 35.1646H250.989V44.0367H251.94V35.1646ZM258.213 34.3105H259.021L260.399 32.4127H259.306L258.213 34.3105ZM256.169 35.1645V44.0367V44.0841H261.682V43.2301H257.12V40.0039H261.017V39.1499H257.12V36.0185H261.682V35.1645H256.169ZM268.003 36.0186V44.0367H267.052V36.0186H264.486V35.1646H270.569V36.0186H268.003ZM275.987 34.3105H276.795L278.173 32.4127H277.08L275.987 34.3105ZM273.943 35.1645V44.0367V44.0841H279.456V43.2301H274.894V40.0039H278.791V39.1499H274.894V36.0185H279.456V35.1645H273.943ZM292.573 36.6354C292.097 36.1609 291.527 35.9711 290.814 35.9711H288.866V43.1827H290.814C291.479 43.1827 292.097 42.9929 292.573 42.5185C293.15 41.9424 293.146 40.7454 293.143 39.7008V39.6985V39.6962C293.143 39.624 293.143 39.5525 293.143 39.482C293.143 39.4127 293.143 39.343 293.143 39.273C293.146 38.2891 293.149 37.2555 292.573 36.6354ZM293.238 43.2301C292.715 43.752 291.907 44.0367 291.004 44.0367H287.963V35.1646H291.004C291.907 35.1646 292.715 35.4492 293.238 35.9711C294.098 36.8299 294.096 38.1191 294.093 39.3057L294.093 39.482L294.094 39.6039L294.095 39.79V39.7914C294.102 40.968 294.11 42.359 293.238 43.2301ZM298.038 35.1646V44.0367H303.598V43.1827H298.988V40.0039H302.885V39.1499H298.988V36.0186H303.598V35.1646H298.038ZM314.338 44.1315C313.008 44.1315 312.105 43.7994 311.297 42.9454L311.962 42.2811C312.723 43.0403 313.388 43.2775 314.386 43.2775C315.669 43.2775 316.477 42.6607 316.477 41.6169C316.477 41.1425 316.334 40.7629 316.049 40.5257C315.764 40.2885 315.526 40.1936 314.909 40.0987L313.863 39.9564C313.15 39.8615 312.628 39.6242 312.247 39.2921C311.82 38.9126 311.582 38.3432 311.582 37.6316C311.582 36.1133 312.675 35.117 314.433 35.117C315.574 35.117 316.334 35.4017 317.095 36.1133L316.477 36.7301C315.907 36.2082 315.336 35.971 314.386 35.971C313.198 35.971 312.532 36.6352 312.532 37.6316C312.532 38.0586 312.675 38.4381 312.913 38.6754C313.198 38.9126 313.673 39.1024 314.101 39.1498L315.099 39.2921C315.954 39.4345 316.334 39.5768 316.715 39.9089C317.19 40.3359 317.475 40.9527 317.475 41.6644C317.427 43.1826 316.192 44.1315 314.338 44.1315ZM321.61 43.23C322.227 43.7994 323.035 44.1315 323.891 44.1315C325.459 44.1315 326.695 43.1351 326.98 41.4746H326.029C325.792 42.5658 324.984 43.2775 323.891 43.2775C323.32 43.2775 322.75 43.0402 322.37 42.6607C321.8 42.0914 321.752 41.4746 321.752 39.6242C321.752 37.7739 321.8 37.1571 322.37 36.5878C322.75 36.2082 323.32 35.971 323.891 35.971C324.984 35.971 325.744 36.6827 325.982 37.7739H326.98C326.695 36.1133 325.507 35.117 323.891 35.117C322.988 35.117 322.227 35.4017 321.61 36.0185C320.754 36.8725 320.754 37.7265 320.754 39.6242C320.754 41.522 320.754 42.376 321.61 43.23ZM331.685 35.1646H330.734V44.0367H331.685V35.1646ZM335.962 35.1646V44.0367H341.522V43.1827H336.912V40.0039H340.809V39.1499H336.912V36.0186H341.522V35.1646H335.962ZM350.837 44.0367L346.132 36.92V44.0367H345.182V35.1646H346.084L350.789 42.2813V35.1646H351.74V44.0367H350.837ZM356.492 43.23C357.11 43.7994 357.918 44.1315 358.773 44.1315C360.389 44.1315 361.577 43.1351 361.862 41.4746H360.912C360.674 42.5658 359.866 43.2775 358.773 43.2775C358.203 43.2775 357.633 43.0402 357.252 42.6607C356.682 42.0914 356.635 41.4746 356.635 39.6242C356.635 37.7739 356.682 37.1571 357.252 36.5878C357.633 36.2082 358.203 35.971 358.773 35.971C359.866 35.971 360.627 36.6827 360.864 37.7739H361.862C361.577 36.1133 360.389 35.117 358.773 35.117C357.87 35.117 357.11 35.4017 356.492 36.0185C355.637 36.8725 355.637 37.7265 355.637 39.6242C355.637 41.522 355.637 42.376 356.492 43.23ZM365.664 44.0367V35.1646H371.225V36.0186H366.615V39.1499H370.512V40.0039H366.615V43.1827H371.225V44.0367H365.664ZM374.124 42.9454C374.931 43.7994 375.834 44.1315 377.165 44.1315C379.019 44.1315 380.254 43.1826 380.302 41.6644C380.302 40.9527 380.017 40.3359 379.541 39.9089C379.161 39.5768 378.781 39.4345 377.925 39.2921L376.927 39.1498C376.5 39.1024 376.025 38.9126 375.739 38.6754C375.502 38.4381 375.359 38.0586 375.359 37.6316C375.359 36.6352 376.024 35.971 377.213 35.971C378.163 35.971 378.733 36.2082 379.304 36.7301L379.921 36.1133C379.161 35.4017 378.401 35.117 377.26 35.117C375.502 35.117 374.409 36.1133 374.409 37.6316C374.409 38.3432 374.646 38.9126 375.074 39.2921C375.454 39.6242 375.977 39.8615 376.69 39.9564L377.735 40.0987C378.353 40.1936 378.591 40.2885 378.876 40.5257C379.161 40.7629 379.304 41.1425 379.304 41.6169C379.304 42.6607 378.496 43.2775 377.213 43.2775C376.215 43.2775 375.549 43.0403 374.789 42.2811L374.124 42.9454Z" fill="black"/>
<path d="M203.821 2.41748V46.7775" stroke="black" stroke-miterlimit="3.864"/>
<path fill-rule="evenodd" clip-rule="evenodd" d="M23.0571 13.437L22.1428 0.751339C20.7996 0.661792 20.13 0.718185 19.7328 0.751633C19.4964 0.771545 19.3565 0.783325 19.2286 0.751339L20.3714 13.437C21.6 13.3513 22.2571 13.3513 23.0571 13.437ZM24.5143 3.66563H27.6857L26.5143 12.1799C24.3714 12.2085 23.9143 12.2085 23.3428 12.1514C23.9945 9.40919 24.2333 6.77022 24.4761 4.08736L24.5143 3.66563ZM19.6286 11.4085C18.4857 9.0085 17.0857 6.66564 15.6286 4.77992C14.8571 5.26564 13.8857 5.97993 13.4286 6.75136L17.2 13.1228C17.8545 12.7107 18.6119 12.1546 19.2801 11.6639L19.2805 11.6636C19.3997 11.5761 19.5161 11.4907 19.6286 11.4085ZM35.3143 11.4942C35.8857 11.4942 37.2571 11.6656 37.8286 11.8371C38.3714 12.0085 41.3428 13.4942 42.8571 14.8085C44.5428 16.2656 45.8 18.0942 46.9429 19.8371C46.572 19.9882 46.1879 20.2582 45.7747 20.5486C45.3285 20.8622 44.8483 21.1997 44.3143 21.4371C42.9143 18.9514 39.0571 14.3799 35.1428 14.4942C33.608 14.5374 29.8489 16.5597 27.5406 17.8014C26.798 18.2009 26.2056 18.5196 25.8857 18.6656C25.6 17.8942 25.1143 16.8656 24.6571 16.0656C25.5975 15.575 26.5053 15.0585 27.3879 14.5562L27.388 14.5561C30.2065 12.9522 32.7687 11.4942 35.3143 11.4942ZM17.1421 14.418C14.5413 13.2637 11.5844 11.9513 9.02857 11.9513C4.07422 11.9513 2.59918 15.6114 0.725964 20.2595L0.725954 20.2595L0.72589 20.2597L0.725726 20.2601C0.492488 20.8388 0.253074 21.4329 0 22.0371C0.742857 22.5799 2.71428 23.3799 2.71428 23.3514C2.7291 23.3217 2.7664 23.2052 2.82556 23.0205L2.82559 23.0204L2.82561 23.0204C3.33652 21.4251 5.47727 14.7406 8.85713 14.8942C10.9403 14.9868 15.6301 16.9546 18.3081 18.0783L18.3082 18.0783L18.3082 18.0783C18.9358 18.3416 19.4528 18.5586 19.8 18.6942C20.2 17.8085 20.9429 16.1514 20.9143 16.1514C20.8857 16.1228 19.4571 15.4085 19.0286 15.2371C18.4304 14.9898 17.7976 14.7089 17.1421 14.418ZM20.7429 19.9799C21.0286 20.7514 21.5429 21.6656 22.0286 22.4656C21.8556 22.5656 21.5704 22.7374 21.2006 22.9602C18.8214 24.3936 12.9381 27.9382 10.8857 28.0371C7.57143 28.2085 4.19999 24.2942 4.14285 22.8942C4.14285 22.8371 5.71429 21.3228 6.45714 20.8085C6.72928 21.275 7.10722 21.9002 7.456 22.4772L7.45602 22.4773L7.4564 22.4779L7.45708 22.479L7.45891 22.482C7.62173 22.7514 7.7781 23.0101 7.91428 23.2371C8.54285 24.2942 10.0286 24.9228 10.8857 24.9228C12.6123 24.9228 15.0171 23.3681 17.1543 21.9865C18.5537 21.0818 19.8384 20.2513 20.7429 19.9799ZM34.1714 23.4371C32.4571 23.4371 28.0571 21.7799 26.4 20.2942C26.3026 20.4349 26.1899 20.5981 26.0711 20.7701L26.071 20.7701C25.5624 21.5063 24.9429 22.4031 24.9429 22.3799C26.1143 23.8942 31.5429 26.6656 34.4857 26.5228C37.7429 26.3799 40.0571 25.3228 43.3714 22.7228C43.3429 22.7514 41.9714 21.0656 41.4857 20.4371C39.3429 22.1799 36.4286 23.4371 34.1714 23.4371ZM25.2903 31.3652L25.2903 31.3652C24.6776 30.385 24.0795 29.4283 23.6 28.6371L18.1714 35.2085C19.2857 37.9799 22.1714 43.6085 22.1428 43.5514C24.3143 41.6942 28.5429 37.5514 28.5429 36.9799C28.5429 36.5684 26.868 33.889 25.2903 31.3652ZM23.5714 23.4942L32.3143 36.8371C29.6571 40.8085 24.5143 45.9799 20.8571 48.3228C18.4248 45.0652 16.9168 41.5599 15.3672 37.9576L15.3671 37.9576C14.8781 36.8207 14.3849 35.6742 13.8571 34.5228L23.5714 23.4942Z" fill="black"/>
<path d="M80.5714 42.1228V41.3514H77.3429L80.5143 37.0942V36.4085H76.2V37.1799H79.3429L76.2 41.4085V42.0942H80.5714V42.1228ZM127.914 41.6085C127.086 41.6085 126.486 41.0942 126.486 40.3514C126.486 39.6371 127.057 39.1228 127.914 39.1228C128.514 39.1228 129.143 39.3513 129.486 39.8085V40.8942C129.114 41.3799 128.514 41.6085 127.914 41.6085ZM130.343 42.1228V38.2085C130.343 36.8371 129.343 36.2942 128.143 36.2942C127.2 36.2942 126.486 36.6085 125.857 37.2371L126.257 37.8656C126.771 37.3228 127.314 37.0656 128 37.0656C128.829 37.0656 129.429 37.4942 129.429 38.2656V39.2942C128.971 38.7799 128.314 38.5228 127.543 38.5228C126.571 38.5228 125.543 39.1228 125.543 40.4085C125.543 41.6371 126.571 42.2942 127.543 42.2942C128.314 42.2942 128.971 42.0371 129.429 41.4942V42.1514H130.343V42.1228ZM123.971 38.8942H120.229C120.286 38.0371 120.886 37.0085 122.086 37.0085C123.4 36.9799 123.971 38.0371 123.971 38.8942ZM122.2 42.2371C123.114 42.2371 123.886 41.9228 124.457 41.3514L124.029 40.7799C123.571 41.2656 122.914 41.5228 122.257 41.5228C121.029 41.5228 120.286 40.6371 120.2 39.5514H124.8V39.3228C124.8 37.6085 123.771 36.2656 122.057 36.2656C120.429 36.2656 119.229 37.6085 119.229 39.2656C119.286 41.0371 120.514 42.2371 122.2 42.2371ZM117.914 42.2371C118.429 42.2371 118.743 42.0942 118.971 41.8656L118.714 41.1799C118.6 41.3228 118.371 41.4371 118.114 41.4371C117.743 41.4371 117.543 41.1228 117.543 40.6942V37.1514H118.714V36.3799H117.543V34.8085H116.629V36.3799H115.686V37.1514H116.629V40.8942C116.657 41.7799 117.086 42.2371 117.914 42.2371ZM113.371 42.1228V38.0656C113.629 37.6085 114.371 37.1514 114.943 37.1514C115.086 37.1514 115.171 37.1514 115.286 37.1799V36.2656C114.514 36.2656 113.857 36.7228 113.371 37.2942V36.3799H112.486V42.0942H113.371V42.1228ZM108.8 41.6085C107.943 41.6085 107.371 41.0942 107.371 40.3514C107.371 39.6371 107.943 39.1228 108.8 39.1228C109.4 39.1228 110.029 39.3513 110.371 39.8085V40.8942C110 41.3799 109.4 41.6085 108.8 41.6085ZM111.229 42.1228V38.2085C111.229 36.8371 110.229 36.2942 109.029 36.2942C108.086 36.2942 107.371 36.6085 106.743 37.2371L107.143 37.8656C107.657 37.3228 108.2 37.0656 108.886 37.0656C109.714 37.0656 110.343 37.4942 110.343 38.2656V39.2942C109.886 38.7799 109.229 38.5228 108.457 38.5228C107.486 38.5228 106.457 39.1228 106.457 40.4085C106.457 41.6371 107.486 42.2942 108.457 42.2942C109.229 42.2942 109.886 42.0371 110.343 41.4942V42.1514H111.229V42.1228ZM105.886 42.1228L103.343 39.0085L105.886 36.4085H104.771L101.771 39.4371V34.2085H100.886V42.0942H101.771V40.4656L102.743 39.5228L104.8 42.0942H105.886V42.1228ZM99.2572 34.2085H98.3714V42.0942H99.2572V34.2085ZM96.4572 38.8942H92.7143C92.7714 38.0371 93.3714 37.0085 94.5714 37.0085C95.8857 36.9799 96.4572 38.0371 96.4572 38.8942ZM94.7143 42.2371C95.6286 42.2371 96.4 41.9228 96.9714 41.3514L96.5429 40.7799C96.0857 41.2656 95.4286 41.5228 94.7714 41.5228C93.5429 41.5228 92.8 40.6371 92.7143 39.5514H97.3143V39.3228C97.3143 37.6085 96.2857 36.2656 94.5714 36.2656C92.9429 36.2656 91.7429 37.6085 91.7429 39.2656C91.7714 41.0371 93 42.2371 94.7143 42.2371ZM85.6572 41.6085C84.8286 41.6085 84.2286 41.0942 84.2286 40.3514C84.2286 39.6371 84.8 39.1228 85.6572 39.1228C86.2572 39.1228 86.8857 39.3513 87.2286 39.8085V40.8942C86.8857 41.3799 86.2572 41.6085 85.6572 41.6085ZM88.1143 42.1228V38.2085C88.1143 36.8371 87.1143 36.2942 85.9143 36.2942C84.9714 36.2942 84.2571 36.6085 83.6286 37.2371L84.0286 37.8656C84.5429 37.3228 85.0857 37.0656 85.7714 37.0656C86.6 37.0656 87.2 37.4942 87.2 38.2656V39.2942C86.7429 38.7799 86.0857 38.5228 85.3143 38.5228C84.3429 38.5228 83.3143 39.1228 83.3143 40.4085C83.3143 41.6371 84.3429 42.2942 85.3143 42.2942C86.0857 42.2942 86.7429 42.0371 87.2 41.4942V42.1514H88.1143V42.1228ZM82.5429 36.4085H81.6572V42.1228H82.5429V36.4085ZM82.1143 35.5799C82.4572 35.5799 82.7143 35.3228 82.7143 34.9799C82.7143 34.6371 82.4572 34.3799 82.1143 34.3799C81.7714 34.3799 81.5143 34.6656 81.5143 34.9799C81.5143 35.3228 81.7714 35.5799 82.1143 35.5799ZM74.5143 42.2371C75.0286 42.2371 75.3429 42.0942 75.5714 41.8656L75.3143 41.1799C75.2 41.3228 74.9714 41.4371 74.7143 41.4371C74.3429 41.4371 74.1429 41.1228 74.1429 40.6942V37.1514H75.3143V36.3799H74.1429V34.8085H73.2572V36.3799H72.3143V37.1514H73.2572V40.8942C73.2572 41.7799 73.6857 42.2371 74.5143 42.2371ZM71.5429 42.1228V38.1228C71.5429 36.8942 70.9143 36.2656 69.7429 36.2656C68.8857 36.2656 68.0857 36.7513 67.6857 37.2371V36.4085H66.8V42.1228H67.6857V37.9228C68.0286 37.4656 68.6857 37.0371 69.3714 37.0371C70.1429 37.0371 70.6572 37.3514 70.6572 38.3514V42.0942H71.5429V42.1228ZM65.0571 38.8942H61.3143C61.3714 38.0371 61.9714 37.0085 63.1714 37.0085C64.4857 36.9799 65.0571 38.0371 65.0571 38.8942ZM63.3143 42.2371C64.2286 42.2371 65 41.9228 65.5714 41.3514L65.1429 40.7799C64.6857 41.2656 64.0286 41.5228 63.3714 41.5228C62.1429 41.5228 61.4 40.6371 61.3143 39.5514H65.9143V39.3228C65.9143 37.6085 64.8857 36.2656 63.1714 36.2656C61.5429 36.2656 60.3429 37.6085 60.3429 39.2656C60.4 41.0371 61.6 42.2371 63.3143 42.2371ZM59.4286 36.4085H58.5429V42.1228H59.4286V36.4085ZM59 35.5799C59.3429 35.5799 59.6 35.3228 59.6 34.9799C59.6 34.6371 59.3429 34.3799 59 34.3799C58.6571 34.3799 58.4 34.6656 58.4 34.9799C58.3714 35.3228 58.6571 35.5799 59 35.5799ZM57.3714 42.1228V41.3514H54.1429L57.3143 37.0942V36.4085H53V37.1799H56.1429L53 41.4085V42.0942H57.3714V42.1228Z" fill="black"/>
<path d="M64.9714 28.171C65.9428 30.3995 68.3143 30.6852 70.8 30.6852V26.0567C69.2 25.9424 68.6857 25.6567 68.6857 24.1424V12.9424H61.0286C56.9714 12.9424 53.0286 15.3424 53.0286 20.0281V23.5995C53.0286 28.2852 55.6 30.7138 59.9143 30.7138C62.6286 30.6852 63.9714 29.2852 64.9714 28.171ZM183.514 13.4567H178.714V30.5709H183.514V13.4567ZM183.514 6.9424H178.714V11.371H183.514V6.9424ZM166.057 16.9138C168 16.9138 169.171 17.771 169.171 20.371V22.171C169.171 24.6852 168.371 26.3424 165.914 26.3424C164.029 26.3424 162.8 25.3424 162.8 22.3424V20.3995C162.8 17.7995 164 16.9138 166.057 16.9138ZM170.286 28.171C171.257 30.3995 173.629 30.6852 176.114 30.6852V26.0567C174.486 25.9424 174 25.6567 174 24.1424V6.88525H169.2V13.171C168.171 12.771 167.143 12.5995 165.8 12.5995C160.914 12.5995 158 15.0567 158 19.8567V23.3424C158 28.3995 160.743 30.6852 164.8 30.6852C167.686 30.6852 169 29.5424 170.286 28.171ZM147.657 26.371C145.657 26.371 144.686 25.1995 144.686 22.2567V20.6281C144.686 18.4567 145.743 17.2281 147.886 17.2281H150.714V22.1424C150.714 24.7995 150.114 26.371 147.657 26.371ZM151.8 28.171C152.8 30.3995 155.143 30.6852 157.629 30.6852V26.0567C156.029 25.9424 155.514 25.6567 155.514 24.1424V12.9424H147.857C143.771 12.9424 139.857 15.3424 139.857 20.0281V23.5995C139.857 28.2852 142.429 30.7138 146.743 30.7138C149.457 30.6852 150.771 29.2852 151.8 28.171ZM123.571 12.8567V17.171H131.086L122.343 30.5709H138.914V26.2281H130.514L139.914 12.8567H123.571ZM104.857 30.5709H109.657V20.5424C109.657 17.8567 111.143 16.9424 113 16.9424C115 16.9424 116.086 18.0281 116.086 20.7424V30.5995H120.886V19.7424C120.886 15.0567 118.314 12.6281 114.029 12.6281C111.543 12.6281 109.6 13.2281 108 14.8567C107.086 13.0281 104.8 12.6281 102.314 12.6281V17.2567C103.914 17.371 104.829 17.6567 104.829 19.171V30.5709H104.857ZM91.4286 26.371C89.4286 26.371 88.4571 25.1995 88.4571 22.2567V20.6281C88.4571 18.4567 89.5143 17.2281 91.6571 17.2281H94.5143V22.1424C94.4571 24.7995 93.8857 26.371 91.4286 26.371ZM95.5714 28.171C96.5428 30.3995 98.9143 30.6852 101.4 30.6852V26.0567C99.8 25.9424 99.2857 25.6567 99.2857 24.1424V12.9424H91.6286C87.5714 12.9424 83.6286 15.3424 83.6286 20.0281V23.5995C83.6286 28.2852 86.2 30.7138 90.5143 30.7138C93.2 30.6852 94.5428 29.2852 95.5714 28.171ZM82.6286 12.5995C80.6286 12.5995 79.2 13.0852 77.9714 13.9138V12.8567H73.1714V30.5709H77.9714V21.0281C77.9714 18.2852 79.5143 16.9424 82.6286 16.9424V12.5995ZM60.8286 26.371C58.8286 26.371 57.8571 25.1995 57.8571 22.2567V20.6281C57.8571 18.4567 58.9143 17.2281 61.0571 17.2281H63.8857V22.1424C63.8857 24.7995 63.2857 26.371 60.8286 26.371Z" fill="black"/>
</svg>
